<svg id="Layer_1" height="512" viewBox="0 0 64 64" width="512" xmlns="http://www.w3.org/2000/svg" data-name="Layer 1"><path d="m9.027 44.828-1.007 8.336a2.506 2.506 0 0 0 2.497 2.836 2.462 2.462 0 0 0 .319-.02l8.336-1.007a7.944 7.944 0 0 0 4.628-2.273l21.6-21.6a1 1 0 0 0 0-1.414l-11.082-11.092a1 1 0 0 0 -1.414 0l-21.604 21.606a7.944 7.944 0 0 0 -2.273 4.628z"/><path d="m54.481 14.689-5.17-5.17a5.183 5.183 0 0 0 -7.332 0l-4.854 4.854a1 1 0 0 0 0 1.414l11.088 11.088a1 1 0 0 0 1.414 0l4.854-4.854a5.183 5.183 0 0 0 0-7.332z"/><path d="m56 54a2 2 0 0 0 -2-2h-23a2 2 0 0 0 0 4h23a2 2 0 0 0 2-2z"/></svg>